<svg xmlns="http://www.w3.org/2000/svg" xmlns:xlink="http://www.w3.org/1999/xlink" width="500" zoomAndPan="magnify" viewBox="0 0 375 374.999991" height="500" preserveAspectRatio="xMidYMid meet" version="1.0"><defs><g/><clipPath id="45d7eeff82"><path d="M 81.8125 142.203125 L 176.585938 142.203125 L 176.585938 236.976562 L 81.8125 236.976562 Z M 81.8125 142.203125 " clip-rule="nonzero"/></clipPath><clipPath id="16a04423ac"><path d="M 129.199219 142.203125 C 103.027344 142.203125 81.8125 163.417969 81.8125 189.589844 C 81.8125 215.761719 103.027344 236.976562 129.199219 236.976562 C 155.371094 236.976562 176.585938 215.761719 176.585938 189.589844 C 176.585938 163.417969 155.371094 142.203125 129.199219 142.203125 Z M 129.199219 142.203125 " clip-rule="nonzero"/></clipPath></defs><g clip-path="url(#45d7eeff82)"><g clip-path="url(#16a04423ac)"><path fill="#ffde59" d="M 81.8125 142.203125 L 176.585938 142.203125 L 176.585938 236.976562 L 81.8125 236.976562 Z M 81.8125 142.203125 " fill-opacity="1" fill-rule="nonzero"/></g></g><g fill="#050a30" fill-opacity="1"><g transform="translate(42.581721, 210.697863)"><g><path d="M 19.921875 12.859375 C 18.109375 12.859375 16.300781 12.691406 14.5 12.359375 C 12.707031 12.035156 11.023438 11.453125 9.453125 10.609375 C 7.890625 9.765625 6.5625 8.578125 5.46875 7.046875 C 4.375 5.523438 3.644531 3.585938 3.28125 1.234375 L 13.671875 1.234375 C 14.242188 2.722656 15.035156 3.742188 16.046875 4.296875 C 17.054688 4.859375 18.328125 5.140625 19.859375 5.140625 C 22.210938 5.140625 23.890625 4.59375 24.890625 3.5 C 25.898438 2.40625 26.40625 1.132812 26.40625 -0.3125 L 26.40625 -5.015625 C 25.257812 -3.234375 23.941406 -2.035156 22.453125 -1.421875 C 20.972656 -0.804688 19.300781 -0.5 17.4375 -0.5 C 14.46875 -0.5 11.828125 -1.269531 9.515625 -2.8125 C 7.210938 -4.363281 5.410156 -6.46875 4.109375 -9.125 C 2.816406 -11.78125 2.171875 -14.78125 2.171875 -18.125 C 2.171875 -21.507812 2.816406 -24.53125 4.109375 -27.1875 C 5.410156 -29.84375 7.210938 -31.941406 9.515625 -33.484375 C 11.828125 -35.035156 14.46875 -35.8125 17.4375 -35.8125 C 19.300781 -35.8125 20.972656 -35.5 22.453125 -34.875 C 23.941406 -34.257812 25.257812 -33.066406 26.40625 -31.296875 L 26.40625 -35.078125 L 36.8125 -35.078125 L 36.8125 -2.96875 C 36.8125 0.164062 36.363281 2.765625 35.46875 4.828125 C 34.582031 6.890625 33.363281 8.503906 31.8125 9.671875 C 30.269531 10.847656 28.476562 11.671875 26.4375 12.140625 C 24.40625 12.617188 22.234375 12.859375 19.921875 12.859375 Z M 20.359375 -9.34375 C 22.660156 -9.34375 24.507812 -10.175781 25.90625 -11.84375 C 27.3125 -13.507812 28.015625 -15.601562 28.015625 -18.125 C 28.015625 -20.675781 27.3125 -22.785156 25.90625 -24.453125 C 24.507812 -26.128906 22.660156 -26.96875 20.359375 -26.96875 C 18.046875 -26.96875 16.1875 -26.113281 14.78125 -24.40625 C 13.382812 -22.695312 12.6875 -20.601562 12.6875 -18.125 C 12.6875 -15.6875 13.375 -13.613281 14.75 -11.90625 C 16.132812 -10.195312 18.003906 -9.34375 20.359375 -9.34375 Z M 20.359375 -9.34375 "/></g></g></g><g fill="#050a30" fill-opacity="1"><g transform="translate(82.787385, 210.697863)"><g><path d="M 13.796875 0 L 3.40625 0 L 3.40625 -35.078125 L 13.796875 -35.078125 L 13.796875 -31.296875 C 14.992188 -33.066406 16.320312 -34.257812 17.78125 -34.875 C 19.25 -35.5 20.910156 -35.8125 22.765625 -35.8125 L 24.3125 -35.8125 L 24.3125 -25.921875 L 22.328125 -25.921875 C 20.890625 -25.921875 19.695312 -25.753906 18.75 -25.421875 C 17.800781 -25.085938 17.015625 -24.632812 16.390625 -24.0625 C 15.484375 -23.195312 14.820312 -22.03125 14.40625 -20.5625 C 14 -19.101562 13.796875 -17.175781 13.796875 -14.78125 Z M 13.796875 0 "/></g></g></g><g fill="#050a30" fill-opacity="1"><g transform="translate(108.147889, 210.697863)"><g><path d="M 20.40625 0.75 C 16.78125 0.75 13.578125 -0.0078125 10.796875 -1.53125 C 8.015625 -3.0625 5.847656 -5.21875 4.296875 -8 C 2.753906 -10.789062 1.984375 -14.039062 1.984375 -17.75 C 1.984375 -21.34375 2.753906 -24.488281 4.296875 -27.1875 C 5.847656 -29.882812 8.003906 -31.992188 10.765625 -33.515625 C 13.523438 -35.046875 16.738281 -35.8125 20.40625 -35.8125 C 24.082031 -35.8125 27.300781 -35.046875 30.0625 -33.515625 C 32.820312 -31.992188 34.972656 -29.882812 36.515625 -27.1875 C 38.066406 -24.488281 38.84375 -21.34375 38.84375 -17.75 C 38.84375 -14.039062 38.078125 -10.800781 36.546875 -8.03125 C 35.023438 -5.269531 32.882812 -3.113281 30.125 -1.5625 C 27.363281 -0.0195312 24.125 0.75 20.40625 0.75 Z M 20.40625 -8.171875 C 22.757812 -8.171875 24.613281 -9.046875 25.96875 -10.796875 C 27.332031 -12.546875 28.015625 -14.863281 28.015625 -17.75 C 28.015625 -20.476562 27.332031 -22.695312 25.96875 -24.40625 C 24.613281 -26.113281 22.757812 -26.96875 20.40625 -26.96875 C 18.101562 -26.96875 16.238281 -26.117188 14.8125 -24.421875 C 13.394531 -22.734375 12.6875 -20.507812 12.6875 -17.75 C 12.6875 -14.820312 13.394531 -12.492188 14.8125 -10.765625 C 16.238281 -9.035156 18.101562 -8.171875 20.40625 -8.171875 Z M 20.40625 -8.171875 "/></g></g></g><g fill="#050a30" fill-opacity="1"><g transform="translate(148.972101, 210.697863)"><g><path d="M 21.40625 0 L 11.5 0 L 0.5625 -35.078125 L 11.625 -35.078125 L 16.765625 -14.65625 L 22.015625 -35.078125 L 30.921875 -35.078125 L 36.25 -14.78125 L 41.5625 -35.078125 L 52.578125 -35.078125 L 41.390625 0 L 31.546875 0 L 26.59375 -21.09375 Z M 21.40625 0 "/></g></g></g><g fill="#050a30" fill-opacity="1"><g transform="translate(202.167281, 210.697863)"><g><path d="M 22.515625 0 L 14.234375 0 C 11.671875 0 9.675781 -0.609375 8.25 -1.828125 C 6.832031 -3.046875 6.125 -4.765625 6.125 -6.984375 L 6.125 -26.96875 L 1.296875 -26.96875 L 1.296875 -35.078125 L 6.125 -35.078125 L 6.125 -47.203125 L 16.515625 -47.203125 L 16.515625 -35.078125 L 22.578125 -35.078125 L 22.578125 -26.96875 L 16.515625 -26.96875 L 16.515625 -10.515625 C 16.515625 -10.023438 16.640625 -9.550781 16.890625 -9.09375 C 17.140625 -8.632812 17.71875 -8.40625 18.625 -8.40625 L 22.515625 -8.40625 Z M 22.515625 0 "/></g></g></g><g fill="#050a30" fill-opacity="1"><g transform="translate(226.785525, 210.697863)"><g><path d="M 13.796875 0 L 3.40625 0 L 3.40625 -47.203125 L 13.796875 -47.203125 L 13.796875 -31.296875 C 14.992188 -33.066406 16.320312 -34.257812 17.78125 -34.875 C 19.25 -35.5 20.910156 -35.8125 22.765625 -35.8125 C 25.078125 -35.8125 26.984375 -35.53125 28.484375 -34.96875 C 29.992188 -34.414062 31.191406 -33.675781 32.078125 -32.75 C 32.960938 -31.820312 33.628906 -30.820312 34.078125 -29.75 C 34.785156 -28.226562 35.191406 -26.703125 35.296875 -25.171875 C 35.398438 -23.648438 35.453125 -21.796875 35.453125 -19.609375 L 35.453125 0 L 25.046875 0 L 25.046875 -19.734375 C 25.046875 -21.460938 24.929688 -22.832031 24.703125 -23.84375 C 24.484375 -24.851562 24.101562 -25.628906 23.5625 -26.171875 C 22.738281 -27.035156 21.460938 -27.46875 19.734375 -27.46875 C 18.660156 -27.46875 17.734375 -27.332031 16.953125 -27.0625 C 16.171875 -26.789062 15.550781 -26.328125 15.09375 -25.671875 C 14.675781 -25.097656 14.351562 -24.34375 14.125 -23.40625 C 13.90625 -22.476562 13.796875 -21.253906 13.796875 -19.734375 Z M 13.796875 0 "/></g></g></g><g fill="#050a30" fill-opacity="1"><g transform="translate(285.576137, 209.323345)"><g><path d="M 0 -3 L 0 -1.140625 L -11.984375 -1.140625 L -11.984375 -3 L -6.84375 -3 L -6.84375 -8.578125 L -11.984375 -8.578125 L -11.984375 -10.421875 L 0 -10.421875 L 0 -8.578125 L -5.1875 -8.578125 L -5.1875 -3 Z M 0 -3 "/></g></g></g><g fill="#050a30" fill-opacity="1"><g transform="translate(285.576137, 197.727356)"><g><path d="M 0 -2.09375 L 0 -0.15625 L -11.984375 -4.46875 L -11.984375 -6.53125 L 0 -10.84375 L 0 -8.9375 L -2.703125 -8.015625 L -2.703125 -3.015625 Z M -10.015625 -5.515625 L -4.328125 -3.578125 L -4.328125 -7.4375 Z M -10.015625 -5.515625 "/></g></g></g><g fill="#050a30" fill-opacity="1"><g transform="translate(285.576137, 186.711949)"><g><path d="M 0 -8.234375 L 0 -1.140625 L -11.984375 -1.140625 L -11.984375 -3 L -1.671875 -3 L -1.671875 -8.234375 Z M 0 -8.234375 "/></g></g></g><g fill="#050a30" fill-opacity="1"><g transform="translate(285.576137, 178.285631)"><g><path d="M 0 -8.234375 L 0 -1.140625 L -11.984375 -1.140625 L -11.984375 -3 L -1.671875 -3 L -1.671875 -8.234375 Z M 0 -8.234375 "/></g></g></g></svg>